<?xml version="1.0" encoding="UTF-8" standalone="no" ?>
<!DOCTYPE svg PUBLIC "-//W3C//DTD SVG 1.1//EN" "http://www.w3.org/Graphics/SVG/1.1/DTD/svg11.dtd">
<svg xmlns="http://www.w3.org/2000/svg" xmlns:xlink="http://www.w3.org/1999/xlink" version="1.1" width="1920" height="300" viewBox="0 0 1920 300" xml:space="preserve">
<desc>Created with Fabric.js 5.2.4</desc>
<defs>
</defs>
<rect x="0" y="0" width="100%" height="100%" fill="transparent"></rect>
<g transform="matrix(Infinity NaN NaN Infinity 0 0)" id="5a4f0953-9939-4ced-84e0-36932b3fdf05"  >
</g>
<g transform="matrix(1 0 0 1 960 150)" id="7161e789-7c58-45b9-b1a7-bb79e0acd092"  >
<rect style="stroke: none; stroke-width: 1; stroke-dasharray: none; stroke-linecap: butt; stroke-dashoffset: 0; stroke-linejoin: miter; stroke-miterlimit: 4; fill: rgb(255,255,255); fill-rule: nonzero; opacity: 1; visibility: hidden;" vector-effect="non-scaling-stroke"  x="-960" y="-150" rx="0" ry="0" width="1920" height="300" />
</g>
<g transform="matrix(2.62 0 0 1.32 1165.89 140.74)"  >
<g style="" vector-effect="non-scaling-stroke"   >
		<g transform="matrix(1 0 0 1 0 0)"  >
<path style="stroke: none; stroke-width: 1; stroke-dasharray: none; stroke-linecap: butt; stroke-dashoffset: 0; stroke-linejoin: miter; stroke-miterlimit: 4; fill: rgb(110,231,183); fill-rule: nonzero; opacity: 1;" vector-effect="non-scaling-stroke"  transform=" translate(-450, -475.5)" d="M 0 442 L 21.5 442.3 C 43 442.7 86 443.3 128.8 430.5 C 171.7 417.7 214.3 391.3 257.2 384.5 C 300 377.7 343 390.3 385.8 395.7 C 428.7 401 471.3 399 514.2 404.2 C 557 409.3 600 421.7 642.8 426 C 685.7 430.3 728.3 426.7 771.2 412.7 C 814 398.7 857 374.3 878.5 362.2 L 900 350 L 900 601 L 878.5 601 C 857 601 814 601 771.2 601 C 728.3 601 685.7 601 642.8 601 C 600 601 557 601 514.2 601 C 471.3 601 428.7 601 385.8 601 C 343 601 300 601 257.2 601 C 214.3 601 171.7 601 128.8 601 C 86 601 43 601 21.5 601 L 0 601 Z" stroke-linecap="round" />
</g>
		<g transform="matrix(1 0 0 1 0 28.5)"  >
<path style="stroke: none; stroke-width: 1; stroke-dasharray: none; stroke-linecap: butt; stroke-dashoffset: 0; stroke-linejoin: miter; stroke-miterlimit: 4; fill: rgb(19,171,169); fill-rule: nonzero; opacity: 1;" vector-effect="non-scaling-stroke"  transform=" translate(-450, -504)" d="M 0 407 L 21.5 415.2 C 43 423.3 86 439.7 128.8 441.8 C 171.7 444 214.3 432 257.2 423.7 C 300 415.3 343 410.7 385.8 419.8 C 428.7 429 471.3 452 514.2 454.2 C 557 456.3 600 437.7 642.8 433.3 C 685.7 429 728.3 439 771.2 446.3 C 814 453.7 857 458.3 878.5 460.7 L 900 463 L 900 601 L 878.5 601 C 857 601 814 601 771.2 601 C 728.3 601 685.7 601 642.8 601 C 600 601 557 601 514.2 601 C 471.3 601 428.7 601 385.8 601 C 343 601 300 601 257.2 601 C 214.3 601 171.7 601 128.8 601 C 86 601 43 601 21.5 601 L 0 601 Z" stroke-linecap="round" />
</g>
		<g transform="matrix(1 0 0 1 0 57.25)"  >
<path style="stroke: none; stroke-width: 1; stroke-dasharray: none; stroke-linecap: butt; stroke-dashoffset: 0; stroke-linejoin: miter; stroke-miterlimit: 4; fill: rgb(0,112,132); fill-rule: nonzero; opacity: 1;" vector-effect="non-scaling-stroke"  transform=" translate(-450, -532.76)" d="M 0 481 L 21.5 476.2 C 43 471.3 86 461.7 128.8 465.3 C 171.7 469 214.3 486 257.2 495 C 300 504 343 505 385.8 506 C 428.7 507 471.3 508 514.2 508.3 C 557 508.7 600 508.3 642.8 505.8 C 685.7 503.3 728.3 498.7 771.2 497.3 C 814 496 857 498 878.5 499 L 900 500 L 900 601 L 878.5 601 C 857 601 814 601 771.2 601 C 728.3 601 685.7 601 642.8 601 C 600 601 557 601 514.2 601 C 471.3 601 428.7 601 385.8 601 C 343 601 300 601 257.2 601 C 214.3 601 171.7 601 128.8 601 C 86 601 43 601 21.5 601 L 0 601 Z" stroke-linecap="round" />
</g>
		<g transform="matrix(1 0 0 1 0 67)"  >
<path style="stroke: none; stroke-width: 1; stroke-dasharray: none; stroke-linecap: butt; stroke-dashoffset: 0; stroke-linejoin: miter; stroke-miterlimit: 4; fill: rgb(20,57,79); fill-rule: nonzero; opacity: 1;" vector-effect="non-scaling-stroke"  transform=" translate(-450, -542.5)" d="M 0 484 L 21.5 486.2 C 43 488.3 86 492.7 128.8 494 C 171.7 495.3 214.3 493.7 257.2 493.2 C 300 492.7 343 493.3 385.8 499.7 C 428.7 506 471.3 518 514.2 524.8 C 557 531.7 600 533.3 642.8 529.5 C 685.7 525.7 728.3 516.3 771.2 511.5 C 814 506.7 857 506.3 878.5 506.2 L 900 506 L 900 601 L 878.5 601 C 857 601 814 601 771.2 601 C 728.3 601 685.7 601 642.8 601 C 600 601 557 601 514.2 601 C 471.3 601 428.7 601 385.8 601 C 343 601 300 601 257.2 601 C 214.3 601 171.7 601 128.8 601 C 86 601 43 601 21.5 601 L 0 601 Z" stroke-linecap="round" />
</g>
		<g transform="matrix(1 0 0 1 0 92.92)"  >
<path style="stroke: none; stroke-width: 1; stroke-dasharray: none; stroke-linecap: butt; stroke-dashoffset: 0; stroke-linejoin: miter; stroke-miterlimit: 4; fill: rgb(2,6,23); fill-rule: nonzero; opacity: 1;" vector-effect="non-scaling-stroke"  transform=" translate(-450, -568.42)" d="M 0 567 L 21.5 563.3 C 43 559.7 86 552.3 128.8 550.8 C 171.7 549.3 214.3 553.7 257.2 551.3 C 300 549 343 540 385.8 537 C 428.7 534 471.3 537 514.2 543.7 C 557 550.3 600 560.7 642.8 558.8 C 685.7 557 728.3 543 771.2 538.5 C 814 534 857 539 878.5 541.5 L 900 544 L 900 601 L 878.5 601 C 857 601 814 601 771.2 601 C 728.3 601 685.7 601 642.8 601 C 600 601 557 601 514.2 601 C 471.3 601 428.7 601 385.8 601 C 343 601 300 601 257.2 601 C 214.3 601 171.7 601 128.8 601 C 86 601 43 601 21.5 601 L 0 601 Z" stroke-linecap="round" />
</g>
</g>
</g>
</svg>