<?xml version="1.0" encoding="UTF-8" standalone="no" ?>
<!DOCTYPE svg PUBLIC "-//W3C//DTD SVG 1.1//EN" "http://www.w3.org/Graphics/SVG/1.1/DTD/svg11.dtd">
<svg xmlns="http://www.w3.org/2000/svg" xmlns:xlink="http://www.w3.org/1999/xlink" version="1.1" width="1920" height="300" viewBox="0 0 1920 300" xml:space="preserve">
<desc>Created with Fabric.js 5.2.4</desc>
<defs>
</defs>
<g transform="matrix(1 0 0 1 960 150)" id="0cab75b0-88c0-4b56-8135-0fc5ef88dcec"  >
<rect style="stroke: none; stroke-width: 1; stroke-dasharray: none; stroke-linecap: butt; stroke-dashoffset: 0; stroke-linejoin: miter; stroke-miterlimit: 4; fill: rgb(255,255,255); fill-rule: nonzero; opacity: 1; visibility: hidden;" vector-effect="non-scaling-stroke"  x="-960" y="-150" rx="0" ry="0" width="1920" height="300" />
</g>
<g transform="matrix(Infinity NaN NaN Infinity 0 0)" id="accf814e-e9c6-4340-bd9c-4220a287a8d6"  >
</g>
<g transform="matrix(2.18 0 0 1.63 960 142.48)"  >
<g style="" vector-effect="non-scaling-stroke"   >
		<g transform="matrix(1 0 0 1 0 0)"  >
<path style="stroke: none; stroke-width: 1; stroke-dasharray: none; stroke-linecap: butt; stroke-dashoffset: 0; stroke-linejoin: miter; stroke-miterlimit: 4; fill: rgb(110,231,183); fill-rule: nonzero; opacity: 1;" vector-effect="non-scaling-stroke"  transform=" translate(-450, -90.18)" d="M 0 143 L 21.5 151.5 C 43 160 86 177 128.8 175.7 C 171.7 174.3 214.3 154.7 257.2 154.2 C 300 153.7 343 172.3 385.8 178.2 C 428.7 184 471.3 177 514.2 170.3 C 557 163.7 600 157.3 642.8 156.5 C 685.7 155.7 728.3 160.3 771.2 161.8 C 814 163.3 857 161.7 878.5 160.8 L 900 160 L 900 0 L 878.5 0 C 857 0 814 0 771.2 0 C 728.3 0 685.7 0 642.8 0 C 600 0 557 0 514.2 0 C 471.3 0 428.7 0 385.8 0 C 343 0 300 0 257.2 0 C 214.3 0 171.7 0 128.8 0 C 86 0 43 0 21.5 0 L 0 0 Z" stroke-linecap="round" />
</g>
		<g transform="matrix(1 0 0 1 0 -17.47)"  >
<path style="stroke: none; stroke-width: 1; stroke-dasharray: none; stroke-linecap: butt; stroke-dashoffset: 0; stroke-linejoin: miter; stroke-miterlimit: 4; fill: rgb(19,171,169); fill-rule: nonzero; opacity: 1;" vector-effect="non-scaling-stroke"  transform=" translate(-450, -72.71)" d="M 0 115 L 21.5 114.8 C 43 114.7 86 114.3 128.8 117.2 C 171.7 120 214.3 126 257.2 132.8 C 300 139.7 343 147.3 385.8 145 C 428.7 142.7 471.3 130.3 514.2 125 C 557 119.7 600 121.3 642.8 124.5 C 685.7 127.7 728.3 132.3 771.2 131 C 814 129.7 857 122.3 878.5 118.7 L 900 115 L 900 0 L 878.5 0 C 857 0 814 0 771.2 0 C 728.3 0 685.7 0 642.8 0 C 600 0 557 0 514.2 0 C 471.3 0 428.7 0 385.8 0 C 343 0 300 0 257.2 0 C 214.3 0 171.7 0 128.8 0 C 86 0 43 0 21.5 0 L 0 0 Z" stroke-linecap="round" />
</g>
		<g transform="matrix(1 0 0 1 0 -30.64)"  >
<path style="stroke: none; stroke-width: 1; stroke-dasharray: none; stroke-linecap: butt; stroke-dashoffset: 0; stroke-linejoin: miter; stroke-miterlimit: 4; fill: rgb(0,112,132); fill-rule: nonzero; opacity: 1;" vector-effect="non-scaling-stroke"  transform=" translate(-450, -59.54)" d="M 0 87 L 21.5 89.7 C 43 92.3 86 97.7 128.8 103 C 171.7 108.3 214.3 113.7 257.2 116.7 C 300 119.7 343 120.3 385.8 116 C 428.7 111.7 471.3 102.3 514.2 101.8 C 557 101.3 600 109.7 642.8 107.7 C 685.7 105.7 728.3 93.3 771.2 87.3 C 814 81.3 857 81.7 878.5 81.8 L 900 82 L 900 0 L 878.5 0 C 857 0 814 0 771.2 0 C 728.3 0 685.7 0 642.8 0 C 600 0 557 0 514.2 0 C 471.3 0 428.7 0 385.8 0 C 343 0 300 0 257.2 0 C 214.3 0 171.7 0 128.8 0 C 86 0 43 0 21.5 0 L 0 0 Z" stroke-linecap="round" />
</g>
		<g transform="matrix(1 0 0 1 0 -51.18)"  >
<path style="stroke: none; stroke-width: 1; stroke-dasharray: none; stroke-linecap: butt; stroke-dashoffset: 0; stroke-linejoin: miter; stroke-miterlimit: 4; fill: rgb(20,57,79); fill-rule: nonzero; opacity: 1;" vector-effect="non-scaling-stroke"  transform=" translate(-450, -39)" d="M 0 62 L 21.5 64 C 43 66 86 70 128.8 68.5 C 171.7 67 214.3 60 257.2 60.2 C 300 60.3 343 67.7 385.8 71.7 C 428.7 75.7 471.3 76.3 514.2 75.2 C 557 74 600 71 642.8 69.3 C 685.7 67.7 728.3 67.3 771.2 69 C 814 70.7 857 74.3 878.5 76.2 L 900 78 L 900 0 L 878.5 0 C 857 0 814 0 771.2 0 C 728.3 0 685.7 0 642.8 0 C 600 0 557 0 514.2 0 C 471.3 0 428.7 0 385.8 0 C 343 0 300 0 257.2 0 C 214.3 0 171.7 0 128.8 0 C 86 0 43 0 21.5 0 L 0 0 Z" stroke-linecap="round" />
</g>
		<g transform="matrix(1 0 0 1 0 -65.18)"  >
<path style="stroke: none; stroke-width: 1; stroke-dasharray: none; stroke-linecap: butt; stroke-dashoffset: 0; stroke-linejoin: miter; stroke-miterlimit: 4; fill: rgb(2,6,23); fill-rule: nonzero; opacity: 1;" vector-effect="non-scaling-stroke"  transform=" translate(-450, -25)" d="M 0 50 L 21.5 49.5 C 43 49 86 48 128.8 48.5 C 171.7 49 214.3 51 257.2 48.3 C 300 45.7 343 38.3 385.8 38.7 C 428.7 39 471.3 47 514.2 45.2 C 557 43.3 600 31.7 642.8 31.3 C 685.7 31 728.3 42 771.2 43 C 814 44 857 35 878.5 30.5 L 900 26 L 900 0 L 878.5 0 C 857 0 814 0 771.2 0 C 728.3 0 685.7 0 642.8 0 C 600 0 557 0 514.2 0 C 471.3 0 428.7 0 385.8 0 C 343 0 300 0 257.2 0 C 214.3 0 171.7 0 128.8 0 C 86 0 43 0 21.5 0 L 0 0 Z" stroke-linecap="round" />
</g>
</g>
</g>
</svg>